<svg width="24" height="24" viewBox="0 0 24 24" fill="none" xmlns="http://www.w3.org/2000/svg"><path d="M3 6H5 21" stroke="#bdbdbd" stroke-linecap="round" stroke-linejoin="round"/><path d="M19.5 6C19.5 5.72386 19.2761 5.5 19 5.5 18.7239 5.5 18.5 5.72386 18.5 6h1zM5.5 6C5.5 5.72386 5.27614 5.5 5 5.5 4.72386 5.5 4.5 5.72386 4.5 6h1zm2 0C7.5 6.27614 7.72386 6.5 8 6.5 8.27614 6.5 8.5 6.27614 8.5 6h-1zm8 0C15.5 6.27614 15.7239 6.5 16 6.5 16.2761 6.5 16.5 6.27614 16.5 6h-1zm3 0V20h1V6h-1zm0 14C18.5 20.8284 17.8284 21.5 17 21.5v1C18.3807 22.5 19.5 21.3807 19.5 20h-1zM17 21.5H7v1H17v-1zm-10 0C6.17157 21.5 5.5 20.8284 5.5 20h-1C4.5 21.3807 5.61929 22.5 7 22.5v-1zM5.5 20V6h-1V20h1zm3-14V4h-1V6h1zm0-2C8.5 3.17157 9.17157 2.5 10 2.5v-1C8.61929 1.5 7.5 2.61929 7.5 4h1zM10 2.5h4v-1H10v1zm4 0C14.8284 2.5 15.5 3.17157 15.5 4h1C16.5 2.61929 15.3807 1.5 14 1.5v1zM15.5 4V6h1V4h-1z" fill="#bdbdbd"/><path d="M10 11v6" stroke="#bdbdbd" stroke-linecap="round" stroke-linejoin="round"/><path d="M14 11v6" stroke="#bdbdbd" stroke-linecap="round" stroke-linejoin="round"/></svg>